<svg xmlns="http://www.w3.org/2000/svg" xmlns:xlink="http://www.w3.org/1999/xlink" width="500" zoomAndPan="magnify" viewBox="0 0 375 374.999991" height="500" preserveAspectRatio="xMidYMid meet" version="1.0"><defs><g/><clipPath id="0b51cbd429"><path d="M 54.773438 131 L 131.273438 131 L 131.273438 213 L 54.773438 213 Z M 54.773438 131 " clip-rule="nonzero"/></clipPath><clipPath id="a5b7bdf83e"><path d="M 54.773438 148.679688 L 131.273438 148.679688 L 131.273438 230.089844 L 54.773438 230.089844 Z M 54.773438 148.679688 " clip-rule="nonzero"/></clipPath></defs><g clip-path="url(#0b51cbd429)"><path fill="#54d4cd" d="M 115.082031 131.484375 L 115.082031 184.195312 C 115.082031 184.195312 95.476562 144.660156 72.335938 138.554688 C 48.261719 132.203125 35.269531 147.445312 35.269531 147.445312 C 35.269531 147.445312 69.886719 129.675781 90.976562 169.085938 C 114.367188 212.800781 131.152344 212.800781 131.152344 212.800781 L 131.152344 147.554688 C 131.152344 138.679688 123.957031 131.484375 115.082031 131.484375 " fill-opacity="1" fill-rule="nonzero"/></g><g clip-path="url(#a5b7bdf83e)"><path fill="#0369ff" d="M 70.148438 230.089844 L 70.148438 177.378906 C 70.148438 177.378906 89.753906 216.914062 112.894531 223.019531 C 136.96875 229.375 149.960938 214.128906 149.960938 214.128906 C 149.960938 214.128906 115.34375 231.902344 94.253906 192.488281 C 70.863281 148.777344 54.078125 148.777344 54.078125 148.777344 L 54.078125 214.019531 C 54.078125 222.894531 61.273438 230.089844 70.148438 230.089844 " fill-opacity="1" fill-rule="nonzero"/></g><g fill="#0369ff" fill-opacity="1"><g transform="translate(138.306582, 222.452406)"><g><path d="M 26.648438 -49.199219 C 33.113281 -49.199219 38.074219 -47.789062 41.523438 -44.972656 C 44.972656 -42.15625 46.695312 -37.871094 46.695312 -32.121094 L 46.695312 0 L 37.511719 0 L 34.96875 -6.554688 L 34.625 -6.554688 C 33.242188 -4.828125 31.835938 -3.421875 30.398438 -2.328125 C 28.960938 -1.234375 27.308594 -0.429688 25.4375 0.0859375 C 23.570312 0.605469 21.300781 0.863281 18.625 0.863281 C 15.78125 0.863281 13.230469 0.316406 10.972656 -0.777344 C 8.71875 -1.867188 6.941406 -3.542969 5.648438 -5.800781 C 4.355469 -8.054688 3.707031 -10.921875 3.707031 -14.402344 C 3.707031 -19.519531 5.503906 -23.289062 9.097656 -25.71875 C 12.691406 -28.148438 18.082031 -29.492188 25.265625 -29.75 L 33.632812 -30.011719 L 33.632812 -32.121094 C 33.632812 -34.652344 32.96875 -36.507812 31.648438 -37.683594 C 30.324219 -38.863281 28.488281 -39.453125 26.128906 -39.453125 C 23.800781 -39.453125 21.515625 -39.121094 19.273438 -38.460938 C 17.03125 -37.800781 14.789062 -36.964844 12.546875 -35.960938 L 8.191406 -44.84375 C 10.75 -46.195312 13.617188 -47.257812 16.792969 -48.03125 C 19.96875 -48.808594 23.253906 -49.199219 26.648438 -49.199219 Z M 33.632812 -22.335938 L 28.542969 -22.164062 C 24.289062 -22.046875 21.335938 -21.285156 19.683594 -19.878906 C 18.03125 -18.46875 17.203125 -16.613281 17.203125 -14.316406 C 17.203125 -12.304688 17.792969 -10.871094 18.972656 -10.023438 C 20.148438 -9.175781 21.6875 -8.753906 23.585938 -8.753906 C 26.402344 -8.753906 28.78125 -9.585938 30.722656 -11.253906 C 32.660156 -12.921875 33.632812 -15.292969 33.632812 -18.367188 Z M 33.632812 -22.335938 "/></g></g></g><g fill="#0369ff" fill-opacity="1"><g transform="translate(191.63248, 222.452406)"><g><path d="M 18.367188 0 L 0 -48.207031 L 13.753906 -48.207031 L 23.066406 -20.738281 C 23.585938 -19.128906 23.996094 -17.433594 24.296875 -15.652344 C 24.597656 -13.871094 24.808594 -12.273438 24.921875 -10.867188 L 25.265625 -10.867188 C 25.351562 -12.390625 25.5625 -14.011719 25.890625 -15.738281 C 26.222656 -17.460938 26.660156 -19.128906 27.207031 -20.738281 L 36.476562 -48.207031 L 50.230469 -48.207031 L 31.863281 0 Z M 18.367188 0 "/></g></g></g><g fill="#0369ff" fill-opacity="1"><g transform="translate(241.854525, 222.452406)"><g><path d="M 20.050781 -48.207031 L 20.050781 0 L 6.898438 0 L 6.898438 -48.207031 Z M 13.496094 -67.089844 C 15.449219 -67.089844 17.132812 -66.636719 18.539062 -65.734375 C 19.949219 -64.828125 20.652344 -63.140625 20.652344 -60.667969 C 20.652344 -58.222656 19.949219 -56.535156 18.539062 -55.601562 C 17.132812 -54.667969 15.449219 -54.199219 13.496094 -54.199219 C 11.511719 -54.199219 9.824219 -54.667969 8.429688 -55.601562 C 7.035156 -56.535156 6.339844 -58.222656 6.339844 -60.667969 C 6.339844 -63.140625 7.035156 -64.828125 8.429688 -65.734375 C 9.824219 -66.636719 11.511719 -67.089844 13.496094 -67.089844 Z M 13.496094 -67.089844 "/></g></g></g><g fill="#0369ff" fill-opacity="1"><g transform="translate(268.797682, 222.452406)"><g><path d="M 34.277344 -49.109375 C 39.425781 -49.109375 43.5625 -47.710938 46.695312 -44.90625 C 49.828125 -42.105469 51.394531 -37.613281 51.394531 -31.433594 L 51.394531 0 L 38.246094 0 L 38.246094 -28.15625 C 38.246094 -31.605469 37.621094 -34.207031 36.371094 -35.960938 C 35.121094 -37.714844 33.15625 -38.589844 30.484375 -38.589844 C 26.460938 -38.589844 23.714844 -37.226562 22.25 -34.496094 C 20.78125 -31.761719 20.050781 -27.824219 20.050781 -22.679688 L 20.050781 0 L 6.898438 0 L 6.898438 -48.207031 L 16.945312 -48.207031 L 18.714844 -42.039062 L 19.445312 -42.039062 C 20.480469 -43.707031 21.765625 -45.058594 23.304688 -46.09375 C 24.84375 -47.128906 26.554688 -47.890625 28.4375 -48.378906 C 30.320312 -48.867188 32.265625 -49.109375 34.277344 -49.109375 Z M 34.277344 -49.109375 "/></g></g></g></svg>