<svg id="Layer_1" data-name="Layer 1" xmlns="http://www.w3.org/2000/svg" viewBox="0 0 1037.56 390.51"><defs><style>.cls-1{fill:#fff;}.cls-2{fill:#ffcc09;}.cls-3{fill:#dbdbd9;}</style></defs><rect class="cls-1" x="512.87" y="55.26" width="51.87" height="51.87" rx="22.11"/><rect class="cls-1" x="588.85" y="55.26" width="51.87" height="51.87" rx="22.11"/><rect class="cls-1" x="985.7" y="55.26" width="51.87" height="51.87" rx="22.11"/><path class="cls-1" d="M876.11,377.45H851.89a13.82,13.82,0,0,0-13.82,13.82v9.82c0,.28.06.53.08.8,0,.6-.08,1.18-.08,1.79V517.36c0,20.51-4.22,25.94-19.6,25.94h-9.1a13.82,13.82,0,0,0-13.82,13.82v18.8a13.82,13.82,0,0,0,13.82,13.82h20.26c38,0,60.3-22.62,60.3-61.22V403.68c0-.6,0-1.18-.08-1.77,0-.28.08-.54.08-.82v-9.82A13.81,13.81,0,0,0,876.11,377.45Z" transform="translate(-249.22 -249.25)"/><rect class="cls-1" x="985.7" y="128.24" width="51.87" height="157.94" rx="13.82"/><rect class="cls-1" x="512.87" y="128.24" width="51.87" height="157.94" rx="13.82"/><path class="cls-1" d="M1168.38,377.48c-31.16-1.32-41.44,9.83-44.32,17.84a6.31,6.31,0,0,1-1,1.81,4.47,4.47,0,0,1-3.22,1.05,4.11,4.11,0,0,1-2.48-.51,3.07,3.07,0,0,1-.63-.54,2.48,2.48,0,0,1-.44-.81,2.91,2.91,0,0,1-.16-1,14.12,14.12,0,0,0-4.14-9.56,13.76,13.76,0,0,0-9.66-4h-23.84a13.82,13.82,0,0,0-13.82,13.82V520.14A13.82,13.82,0,0,0,1078.53,534h24a13.81,13.81,0,0,0,13.64-13.5V444.92c0-.11,0-.22,0-.33V438A13.82,13.82,0,0,1,1130,424.19h16.75A13.82,13.82,0,0,1,1160.58,438s.12,7.15.12,7.5v74.93a13.81,13.81,0,0,0,13.81,13.82h23.83a13.82,13.82,0,0,0,13.82-13.82V423.13q0-1.17-.06-2.34C1212.05,378.48,1168.38,377.48,1168.38,377.48Z" transform="translate(-249.22 -249.25)"/><path class="cls-1" d="M978.3,378h-.09c-3,0-5.83.1-8.61.29l-2.76.09q-31.07,2.2-44.7,17.73-15.79,18.1-15.82,60.69v1.68q0,42.57,15.82,60.7l.09.08h-.09q14.63,16.66,49.39,18c4.91.28,9.09.24,12.3.12a122.81,122.81,0,0,0,12.65-1.13l.11,0,1.85-.28a82.23,82.23,0,0,0,14.93-3.62l1-.36a48.63,48.63,0,0,0,10.25-4.95,45.28,45.28,0,0,0,4.9-3.69c.44-.37.87-.76,1.3-1.16l.36-.34c.44-.41.87-.84,1.28-1.27s.85-.88,1.21-1.29a76.85,76.85,0,0,0,10.21-14.74,36.75,36.75,0,0,0,4.34-13.7,7.18,7.18,0,0,0-.08-3,7.39,7.39,0,0,0-1.06-2.23c-1.3-1.81-4.54-3-8.43-2.81l-29.2.05a10.68,10.68,0,0,0-2.75.26,15.54,15.54,0,0,0-7.49,5.3,19.61,19.61,0,0,0-2,3,18.71,18.71,0,0,1-9.93,7.76,17.23,17.23,0,0,1-5,.75h-6A17.18,17.18,0,0,1,964,494.75c-.08-.08-.16-.13-.23-.21-.27-.27-.51-.58-.76-.88l-.09-.1-.37-.5A17.11,17.11,0,0,1,959,482.63V480c0-1,0-1.7,0-1.86v-2a4.4,4.4,0,0,1,4.24-4.33h70.38q15.87,0,15.88-14.77v-.26q0-42.57-15.82-60.69T978.3,378Zm21.16,56.41a4.36,4.36,0,0,1-4.34,4.12H963.39a4.36,4.36,0,0,1-4.35-4.12v-3a17.23,17.23,0,0,1,17.23-17.23h6a17.23,17.23,0,0,1,17.23,17.23Z" transform="translate(-249.22 -249.25)"/><rect class="cls-2" width="395.24" height="390.51" rx="98.7"/><rect class="cls-1" x="194.46" y="68.43" width="66.04" height="66.04" rx="28.15"/><path class="cls-1" d="M444.65,505.71h0c0,.08,0,.2,0,.31Z" transform="translate(-249.22 -249.25)"/><path class="cls-1" d="M392.4,566.88h1a51.68,51.68,0,0,0,51.3-51.51h0s0-2.11,0-8.8a9.41,9.41,0,0,1-2.44,6.46,8,8,0,0,1-6.73,2.56,38.25,38.25,0,0,1-7.18-1.25c-2.75-.83-3.24-.89-5.24-1.64s-3.77-1.55-4.67-2c-1.56-.71-2.69-1.28-3.34-1.61-8.55-4.32-10.87-5.26-13.58-5.43a8.38,8.38,0,0,0-3.82.54,8.6,8.6,0,0,0-2.91,2c-2.54,2.58-2.49,6.23-2.43,7.34Z" transform="translate(-249.22 -249.25)"/><path class="cls-1" d="M392.29,566.9h.53l-.53,0Z" transform="translate(-249.22 -249.25)"/><path class="cls-3" d="M444.65,506.56a11.4,11.4,0,0,1-.25,2.26,9,9,0,0,1-2.19,4.21,8.31,8.31,0,0,1-1.86,1.49h0v.27a48,48,0,0,1-48,48.05h0v2c0,.12,0,1.88,0,2h1a51.68,51.68,0,0,0,51.3-51.51h0S444.65,513.26,444.65,506.56Z" transform="translate(-249.22 -249.25)"/><path class="cls-1" d="M507.45,407.6a8,8,0,0,0-6.73-2.56,129.88,129.88,0,0,0-15.2,2c-15.64,2.95-29.75,5.61-36.72,16.39-1.69,2.62-4.18,7.61-4.13,15.73V486c0,23.61,0,29.41,0,29.41h0a51.7,51.7,0,0,1-51.84,51.53h51.84c6.4,0,22.33-1.59,24.38-2,15.64-2.95,29.62-5.62,36.58-16.4,1.69-2.61,4.19-7.6,4.14-15.73V486l.12-71C509.94,413.83,510,410.18,507.45,407.6Z" transform="translate(-249.22 -249.25)"/></svg>